<?xml version="1.0" standalone="no"?>
<!DOCTYPE svg PUBLIC "-//W3C//DTD SVG 20010904//EN"
 "http://www.w3.org/TR/2001/REC-SVG-20010904/DTD/svg10.dtd">
<svg version="1.0" xmlns="http://www.w3.org/2000/svg"
 width="1280.000000pt" height="1136.000000pt" viewBox="0 0 1280.000000 1136.000000"
 preserveAspectRatio="xMidYMid meet">
<metadata>
Created by potrace 1.15, written by Peter Selinger 2001-2017
</metadata>
<g transform="translate(0.000000,1136.000000) scale(0.100000,-0.100000)"
fill="#000000" stroke="none">
<path d="M9868 11291 c-99 -39 -150 -85 -198 -181 l-23 -45 7 -1550 c6 -1232
4 -1768 -9 -2610 -9 -583 -18 -1066 -20 -1073 -4 -11 -93 -12 -472 -7 -258 3
-2041 10 -3963 16 -2691 9 -3516 9 -3585 0 -202 -27 -345 -82 -428 -165 -47
-47 -107 -152 -107 -188 0 -11 -17 -26 -43 -39 -61 -31 -104 -66 -127 -103
-24 -39 -59 -176 -145 -572 -153 -701 -207 -936 -239 -1044 -18 -63 -67 -230
-109 -370 -259 -874 -389 -1344 -399 -1444 -10 -103 -6 -249 28 -871 l15 -280
32 -54 c51 -85 117 -148 171 -162 34 -8 47 -17 50 -33 2 -11 12 -66 20 -121
20 -119 55 -223 90 -270 19 -25 41 -39 79 -50 152 -45 -21 -43 4792 -56 2503
-6 5086 -12 5740 -13 l1190 -1 56 26 c90 43 95 54 103 231 9 210 7 203 64 216
96 22 165 54 208 97 71 71 78 112 114 615 48 693 47 612 7 785 -40 167 -141
549 -305 1155 -137 505 -159 601 -392 1721 -48 235 -98 449 -110 477 -31 72
-58 94 -121 97 l-52 3 -39 78 c-66 132 -102 172 -187 212 -42 19 -127 48 -191
65 l-115 31 -482 3 c-266 2 -483 5 -483 6 -1 1 -10 461 -20 1022 -15 770 -19
1408 -20 2606 l0 1586 -35 71 c-41 82 -110 163 -159 186 -45 21 -129 20 -188
-3z"/>
</g>
</svg>
