<?xml version="1.0" standalone="no"?>
<!DOCTYPE svg PUBLIC "-//W3C//DTD SVG 20010904//EN"
 "http://www.w3.org/TR/2001/REC-SVG-20010904/DTD/svg10.dtd">
<svg version="1.0" xmlns="http://www.w3.org/2000/svg"
 width="640.000000pt" height="1280.000000pt" viewBox="0 0 640.000000 1280.000000"
 preserveAspectRatio="xMidYMid meet">
<metadata>
Created by potrace 1.15, written by Peter Selinger 2001-2017
</metadata>
<g transform="translate(0.000000,1280.000000) scale(0.100000,-0.100000)"
fill="#000000" stroke="none">
<path d="M4451 12776 c-12 -13 -30 -48 -39 -77 -15 -50 -17 -250 -19 -2597
l-3 -2543 -40 33 -40 33 0 568 0 567 -1185 0 -1185 0 0 -4360 0 -4360 1185 0
1185 0 0 3578 0 3577 40 33 40 33 0 -39 c0 -60 25 -84 93 -90 52 -4 58 -2 87
26 l30 30 0 2674 c-1 1470 -4 2702 -9 2738 -13 97 -30 150 -56 176 -30 30 -56
30 -84 0z"/>
</g>
</svg>
